<?xml version="1.0" encoding="UTF-8" standalone="no"?>
<!DOCTYPE svg PUBLIC "-//W3C//DTD SVG 1.1//EN"
 "http://www.w3.org/Graphics/SVG/1.1/DTD/svg11.dtd">
<!-- Generated by graphviz version 2.38.0 (20140413.2041)
 -->
<!-- Title: controllers_diagram Pages: 1 -->
<svg width="443pt" height="414pt"
 viewBox="0.00 0.00 443.42 414.00" xmlns="http://www.w3.org/2000/svg" xmlns:xlink="http://www.w3.org/1999/xlink">
<g id="graph0" class="graph" transform="scale(1 1) rotate(0) translate(139.317 275.5)">
<title>controllers_diagram</title>
<polygon fill="none" stroke="none" points="-139.317,138.5 -139.317,-275.5 304.104,-275.5 304.104,138.5 -139.317,138.5"/>
<!-- _diagram_info -->
<g id="node1" class="node"><title>_diagram_info</title>
<text text-anchor="start" x="82.5503" y="-134.1" font-family="Times,serif" font-size="13.00">Controllers diagram</text>
<text text-anchor="start" x="82.5503" y="-121.1" font-family="Times,serif" font-size="13.00">Date: Aug 15 2015 &#45; 15:00</text>
<text text-anchor="start" x="82.5503" y="-108.1" font-family="Times,serif" font-size="13.00">Migration version: 20150814011331</text>
<text text-anchor="start" x="82.5503" y="-95.1" font-family="Times,serif" font-size="13.00">Generated by RailRoady 1.3.1</text>
<text text-anchor="start" x="82.5503" y="-82.1" font-family="Times,serif" font-size="13.00">http://railroady.prestonlee.com</text>
</g>
<!-- ApplicationController -->
<g id="node2" class="node"><title>ApplicationController</title>
<path fill="none" stroke="black" d="M-77.8208,-91C-77.8208,-91 37.8208,-91 37.8208,-91 43.8208,-91 49.8208,-97 49.8208,-103 49.8208,-103 49.8208,-171 49.8208,-171 49.8208,-177 43.8208,-183 37.8208,-183 37.8208,-183 -77.8208,-183 -77.8208,-183 -83.8208,-183 -89.8208,-177 -89.8208,-171 -89.8208,-171 -89.8208,-103 -89.8208,-103 -89.8208,-97 -83.8208,-91 -77.8208,-91"/>
<text text-anchor="middle" x="-20" y="-167.8" font-family="Times,serif" font-size="14.00">ApplicationController</text>
<polyline fill="none" stroke="black" points="-89.8208,-161 49.8208,-161 "/>
<polyline fill="none" stroke="black" points="-89.8208,-137 49.8208,-137 "/>
<polyline fill="none" stroke="black" points="-89.8208,-113 49.8208,-113 "/>
<text text-anchor="start" x="-81.8208" y="-97.8" font-family="Times,serif" font-size="14.00">_layout</text>
</g>
<!-- PagesController -->
<g id="node3" class="node"><title>PagesController</title>
<path fill="none" stroke="black" d="M146.896,134C146.896,134 229.104,134 229.104,134 235.104,134 241.104,128 241.104,122 241.104,122 241.104,42 241.104,42 241.104,36 235.104,30 229.104,30 229.104,30 146.896,30 146.896,30 140.896,30 134.896,36 134.896,42 134.896,42 134.896,122 134.896,122 134.896,128 140.896,134 146.896,134"/>
<text text-anchor="middle" x="188" y="45.2" font-family="Times,serif" font-size="14.00">PagesController</text>
<polyline fill="none" stroke="black" points="134.896,52 241.104,52 "/>
<text text-anchor="start" x="142.896" y="67.2" font-family="Times,serif" font-size="14.00">dashboard</text>
<text text-anchor="start" x="142.896" y="81.2" font-family="Times,serif" font-size="14.00">home</text>
<polyline fill="none" stroke="black" points="134.896,88 241.104,88 "/>
<polyline fill="none" stroke="black" points="134.896,112 241.104,112 "/>
<text text-anchor="start" x="142.896" y="127.2" font-family="Times,serif" font-size="14.00">_layout</text>
</g>
<!-- ShopperController -->
<g id="node4" class="node"><title>ShopperController</title>
<path fill="none" stroke="black" d="M191.896,-181C191.896,-181 288.104,-181 288.104,-181 294.104,-181 300.104,-187 300.104,-193 300.104,-193 300.104,-259 300.104,-259 300.104,-265 294.104,-271 288.104,-271 288.104,-271 191.896,-271 191.896,-271 185.896,-271 179.896,-265 179.896,-259 179.896,-259 179.896,-193 179.896,-193 179.896,-187 185.896,-181 191.896,-181"/>
<text text-anchor="middle" x="240" y="-255.8" font-family="Times,serif" font-size="14.00">ShopperController</text>
<polyline fill="none" stroke="black" points="179.896,-249 300.104,-249 "/>
<text text-anchor="start" x="187.896" y="-233.8" font-family="Times,serif" font-size="14.00">show</text>
<polyline fill="none" stroke="black" points="179.896,-227 300.104,-227 "/>
<polyline fill="none" stroke="black" points="179.896,-203 300.104,-203 "/>
<text text-anchor="start" x="187.896" y="-187.8" font-family="Times,serif" font-size="14.00">_layout</text>
</g>
<!-- Shoppers::OmniauthCallbacksController -->
<g id="node5" class="node"><title>Shoppers::OmniauthCallbacksController</title>
<path fill="none" stroke="black" d="M-123.317,59C-123.317,59 97.3174,59 97.3174,59 103.317,59 109.317,53 109.317,47 109.317,47 109.317,-33 109.317,-33 109.317,-39 103.317,-45 97.3174,-45 97.3174,-45 -123.317,-45 -123.317,-45 -129.317,-45 -135.317,-39 -135.317,-33 -135.317,-33 -135.317,47 -135.317,47 -135.317,53 -129.317,59 -123.317,59"/>
<text text-anchor="middle" x="-13" y="-29.8" font-family="Times,serif" font-size="14.00">Shoppers::OmniauthCallbacksController</text>
<polyline fill="none" stroke="black" points="-135.317,-23 109.317,-23 "/>
<text text-anchor="start" x="-127.317" y="-7.8" font-family="Times,serif" font-size="14.00">extras</text>
<text text-anchor="start" x="-127.317" y="6.2" font-family="Times,serif" font-size="14.00">instagram</text>
<polyline fill="none" stroke="black" points="-135.317,13 109.317,13 "/>
<polyline fill="none" stroke="black" points="-135.317,37 109.317,37 "/>
<text text-anchor="start" x="-127.317" y="52.2" font-family="Times,serif" font-size="14.00">_layout</text>
</g>
</g>
</svg>
