<?xml version="1.0" encoding="UTF-8" standalone="no"?>
<!DOCTYPE svg PUBLIC "-//W3C//DTD SVG 1.1//EN"
 "http://www.w3.org/Graphics/SVG/1.1/DTD/svg11.dtd">
<!-- Generated by graphviz version 2.38.0 (20140413.2041)
 -->
<!-- Title: models_diagram Pages: 1 -->
<svg width="410pt" height="369pt"
 viewBox="0.00 0.00 409.91 369.00" xmlns="http://www.w3.org/2000/svg" xmlns:xlink="http://www.w3.org/1999/xlink">
<g id="graph0" class="graph" transform="scale(1 1) rotate(0) translate(4 365)">
<title>models_diagram</title>
<polygon fill="none" stroke="none" points="-4,4 -4,-365 405.914,-365 405.914,4 -4,4"/>
<!-- _diagram_info -->
<g id="node1" class="node"><title>_diagram_info</title>
<text text-anchor="start" x="8" y="-346.6" font-family="Times,serif" font-size="13.00">Models diagram</text>
<text text-anchor="start" x="8" y="-333.6" font-family="Times,serif" font-size="13.00">Date: Aug 15 2015 &#45; 15:00</text>
<text text-anchor="start" x="8" y="-320.6" font-family="Times,serif" font-size="13.00">Migration version: 20150814011331</text>
<text text-anchor="start" x="8" y="-307.6" font-family="Times,serif" font-size="13.00">Generated by RailRoady 1.3.1</text>
<text text-anchor="start" x="8" y="-294.6" font-family="Times,serif" font-size="13.00">http://railroady.prestonlee.com</text>
</g>
<!-- Brand -->
<g id="node2" class="node"><title>Brand</title>
<ellipse fill="none" stroke="black" cx="256.45" cy="-324.5" rx="31.9393" ry="18"/>
<text text-anchor="middle" x="256.45" y="-320.3" font-family="Times,serif" font-size="14.00">Brand</text>
</g>
<!-- FollowedBy -->
<g id="node3" class="node"><title>FollowedBy</title>
<ellipse fill="none" stroke="black" cx="87.4497" cy="-90" rx="53.6729" ry="18"/>
<text text-anchor="middle" x="87.4497" y="-85.8" font-family="Times,serif" font-size="14.00">FollowedBy</text>
</g>
<!-- Brand&#45;&gt;FollowedBy -->
<g id="edge1" class="edge"><title>Brand&#45;&gt;FollowedBy</title>
<path fill="none" stroke="#c78d61" d="M235.705,-302.688C229.563,-297.347 222.566,-291.99 215.45,-288 169.474,-262.222 136.958,-291.843 102.45,-252 70.3045,-214.885 75.0823,-153.331 81.3348,-118.058"/>
<ellipse fill="none" stroke="#c78d61" cx="239.041" cy="-305.72" rx="4.00002" ry="4.00002"/>
<polygon fill="#c78d61" stroke="#c78d61" points="81.3793,-117.829 87.701,-108.868 82.3313,-112.92 83.2834,-108.012 83.2834,-108.012 83.2834,-108.012 82.3313,-112.92 78.8657,-107.155 81.3793,-117.829 81.3793,-117.829"/>
</g>
<!-- Follower -->
<g id="node4" class="node"><title>Follower</title>
<ellipse fill="none" stroke="black" cx="153.45" cy="-234" rx="42.0784" ry="18"/>
<text text-anchor="middle" x="153.45" y="-229.8" font-family="Times,serif" font-size="14.00">Follower</text>
</g>
<!-- Brand&#45;&gt;Follower -->
<g id="edge2" class="edge"><title>Brand&#45;&gt;Follower</title>
<path fill="none" stroke="#0017be" d="M232.027,-302.309C226.577,-297.592 220.821,-292.621 215.45,-288 203.616,-277.819 190.476,-266.578 179.35,-257.078"/>
<polygon fill="#0017be" stroke="#0017be" points="232.155,-302.42 236.768,-312.369 235.935,-305.694 239.714,-308.967 239.714,-308.967 239.714,-308.967 235.935,-305.694 242.66,-305.566 232.155,-302.42 232.155,-302.42"/>
<polygon fill="#0017be" stroke="#0017be" points="179.259,-256.999 174.573,-247.085 175.455,-253.754 171.652,-250.508 171.652,-250.508 171.652,-250.508 175.455,-253.754 168.731,-253.931 179.259,-256.999 179.259,-256.999"/>
</g>
<!-- Order -->
<g id="node5" class="node"><title>Order</title>
<ellipse fill="none" stroke="black" cx="358.45" cy="-162" rx="30.9619" ry="18"/>
<text text-anchor="middle" x="358.45" y="-157.8" font-family="Times,serif" font-size="14.00">Order</text>
</g>
<!-- Brand&#45;&gt;Order -->
<g id="edge4" class="edge"><title>Brand&#45;&gt;Order</title>
<path fill="none" stroke="#651c5a" d="M281.933,-302.474C296.608,-289.256 314.46,-271.125 326.45,-252 338.536,-232.722 346.914,-208.236 352.057,-189.83"/>
<polygon fill="#651c5a" stroke="#651c5a" points="281.683,-302.694 271.197,-305.905 277.924,-305.991 274.165,-309.288 274.165,-309.288 274.165,-309.288 277.924,-305.991 277.132,-312.671 281.683,-302.694 281.683,-302.694"/>
<polygon fill="#651c5a" stroke="#651c5a" points="352.089,-189.708 358.999,-181.193 353.369,-184.874 354.649,-180.041 354.649,-180.041 354.649,-180.041 353.369,-184.874 350.299,-178.889 352.089,-189.708 352.089,-189.708"/>
</g>
<!-- Post -->
<g id="node6" class="node"><title>Post</title>
<ellipse fill="none" stroke="black" cx="244.45" cy="-90" rx="27" ry="18"/>
<text text-anchor="middle" x="244.45" y="-85.8" font-family="Times,serif" font-size="14.00">Post</text>
</g>
<!-- Brand&#45;&gt;Post -->
<g id="edge5" class="edge"><title>Brand&#45;&gt;Post</title>
<path fill="none" stroke="#69985b" d="M254.897,-296.462C254.139,-283.085 253.226,-266.695 252.45,-252 249.981,-205.251 247.323,-150.855 245.777,-118.765"/>
<polygon fill="#69985b" stroke="#69985b" points="254.898,-296.471 250.973,-306.71 255.182,-301.463 255.466,-306.455 255.466,-306.455 255.466,-306.455 255.182,-301.463 259.959,-306.199 254.898,-296.471 254.898,-296.471"/>
<polygon fill="#69985b" stroke="#69985b" points="245.758,-118.382 249.773,-108.178 245.518,-113.388 245.278,-108.394 245.278,-108.394 245.278,-108.394 245.518,-113.388 240.784,-108.61 245.758,-118.382 245.758,-118.382"/>
</g>
<!-- Reward -->
<g id="node7" class="node"><title>Reward</title>
<ellipse fill="none" stroke="black" cx="299.45" cy="-18" rx="37.7179" ry="18"/>
<text text-anchor="middle" x="299.45" y="-13.8" font-family="Times,serif" font-size="14.00">Reward</text>
</g>
<!-- Brand&#45;&gt;Reward -->
<g id="edge6" class="edge"><title>Brand&#45;&gt;Reward</title>
<path fill="none" stroke="#562270" d="M286.798,-305.654C322.883,-282.254 380.489,-237.351 398.45,-180 415.744,-124.775 362.225,-69.2301 327.252,-40.0155"/>
<polygon fill="#562270" stroke="#562270" points="286.578,-305.792 275.721,-307.33 282.352,-308.463 278.125,-311.134 278.125,-311.134 278.125,-311.134 282.352,-308.463 280.528,-314.938 286.578,-305.792 286.578,-305.792"/>
<polygon fill="#562270" stroke="#562270" points="327.007,-39.8159 322.082,-30.0178 323.126,-36.6632 319.245,-33.5106 319.245,-33.5106 319.245,-33.5106 323.126,-36.6632 316.408,-37.0034 327.007,-39.8159 327.007,-39.8159"/>
</g>
<!-- Shop -->
<g id="node8" class="node"><title>Shop</title>
<ellipse fill="none" stroke="black" cx="289.45" cy="-234" rx="28.0822" ry="18"/>
<text text-anchor="middle" x="289.45" y="-229.8" font-family="Times,serif" font-size="14.00">Shop</text>
</g>
<!-- Brand&#45;&gt;Shop -->
<g id="edge3" class="edge"><title>Brand&#45;&gt;Shop</title>
<path fill="none" stroke="#809a9f" d="M265.753,-298.55C270.335,-286.263 275.837,-271.506 280.386,-259.307"/>
<ellipse fill="none" stroke="#809a9f" cx="264.21" cy="-302.688" rx="4.00001" ry="4.00001"/>
<ellipse fill="#809a9f" stroke="#809a9f" cx="281.821" cy="-255.459" rx="4.00001" ry="4.00001"/>
</g>
<!-- Follower&#45;&gt;FollowedBy -->
<g id="edge7" class="edge"><title>Follower&#45;&gt;FollowedBy</title>
<path fill="none" stroke="#3e5689" d="M129.915,-211.623C121.334,-202.643 112.308,-191.594 106.45,-180 96.6807,-160.668 91.9258,-136.518 89.6163,-118.254"/>
<ellipse fill="none" stroke="#3e5689" cx="132.923" cy="-214.653" rx="4.00002" ry="4.00002"/>
<polygon fill="#3e5689" stroke="#3e5689" points="89.6107,-118.202 92.9928,-107.77 89.0652,-113.231 88.5197,-108.261 88.5197,-108.261 88.5197,-108.261 89.0652,-113.231 84.0466,-108.752 89.6107,-118.202 89.6107,-118.202"/>
</g>
<!-- Shopper -->
<g id="node9" class="node"><title>Shopper</title>
<ellipse fill="none" stroke="black" cx="155.45" cy="-162" rx="39.6645" ry="18"/>
<text text-anchor="middle" x="155.45" y="-157.8" font-family="Times,serif" font-size="14.00">Shopper</text>
</g>
<!-- Follower&#45;&gt;Shopper -->
<g id="edge8" class="edge"><title>Follower&#45;&gt;Shopper</title>
<path fill="none" stroke="#d6b8ae" d="M154.231,-205.665C154.377,-200.552 154.529,-195.21 154.675,-190.104"/>
<polygon fill="#d6b8ae" stroke="#d6b8ae" points="154.23,-205.701 149.446,-215.568 154.087,-210.699 153.944,-215.697 153.944,-215.697 153.944,-215.697 154.087,-210.699 158.442,-215.825 154.23,-205.701 154.23,-205.701"/>
<polygon fill="#d6b8ae" stroke="#d6b8ae" points="154.675,-190.1 159.459,-180.233 154.818,-185.102 154.961,-180.104 154.961,-180.104 154.961,-180.104 154.818,-185.102 150.463,-179.976 154.675,-190.1 154.675,-190.1"/>
</g>
<!-- Order&#45;&gt;Post -->
<g id="edge9" class="edge"><title>Order&#45;&gt;Post</title>
<path fill="none" stroke="#0e33f6" d="M331.066,-144.185C312.765,-132.948 288.826,-118.248 270.753,-107.151"/>
<ellipse fill="none" stroke="#0e33f6" cx="334.66" cy="-146.392" rx="4.00002" ry="4.00002"/>
<ellipse fill="#0e33f6" stroke="#0e33f6" cx="267.302" cy="-105.032" rx="4.00002" ry="4.00002"/>
</g>
<!-- Order&#45;&gt;Reward -->
<g id="edge10" class="edge"><title>Order&#45;&gt;Reward</title>
<path fill="none" stroke="#ef8cc6" d="M347.644,-134.994C337.063,-109.526 321.023,-70.9215 310.394,-45.3396"/>
<polygon fill="#ef8cc6" stroke="#ef8cc6" points="347.729,-135.198 347.411,-146.16 349.648,-139.816 351.566,-144.433 351.566,-144.433 351.566,-144.433 349.648,-139.816 355.722,-142.706 347.729,-135.198 347.729,-135.198"/>
<polygon fill="#ef8cc6" stroke="#ef8cc6" points="310.309,-45.1364 310.628,-34.1751 308.391,-40.5191 306.472,-35.9017 306.472,-35.9017 306.472,-35.9017 308.391,-40.5191 302.317,-37.6284 310.309,-45.1364 310.309,-45.1364"/>
</g>
<!-- Post&#45;&gt;Reward -->
<g id="edge11" class="edge"><title>Post&#45;&gt;Reward</title>
<path fill="none" stroke="#c130a8" d="M261.503,-67.2961C267.879,-59.1804 275.136,-49.9443 281.584,-41.7377"/>
<ellipse fill="none" stroke="#c130a8" cx="258.855" cy="-70.6658" rx="4.00002" ry="4.00002"/>
<ellipse fill="#c130a8" stroke="#c130a8" cx="284.302" cy="-38.2788" rx="4.00002" ry="4.00002"/>
</g>
<!-- Shop&#45;&gt;Order -->
<g id="edge12" class="edge"><title>Shop&#45;&gt;Order</title>
<path fill="none" stroke="#1118f3" d="M309.794,-212.361C318.109,-203.925 327.753,-194.142 336.25,-185.521"/>
<ellipse fill="none" stroke="#1118f3" cx="306.891" cy="-215.306" rx="4.00002" ry="4.00002"/>
<polygon fill="#1118f3" stroke="#1118f3" points="336.341,-185.429 346.565,-181.467 339.851,-181.869 343.361,-178.308 343.361,-178.308 343.361,-178.308 339.851,-181.869 340.156,-175.149 336.341,-185.429 336.341,-185.429"/>
</g>
<!-- Shop&#45;&gt;Post -->
<g id="edge13" class="edge"><title>Shop&#45;&gt;Post</title>
<path fill="none" stroke="#836a74" d="M280.991,-206.309C272.938,-180.897 260.888,-142.87 252.853,-117.517"/>
<polygon fill="#836a74" stroke="#836a74" points="281.09,-206.62 279.821,-217.513 282.6,-211.387 284.111,-216.153 284.111,-216.153 284.111,-216.153 282.6,-211.387 288.401,-214.794 281.09,-206.62 281.09,-206.62"/>
<polygon fill="#836a74" stroke="#836a74" points="252.803,-117.358 254.071,-106.466 251.292,-112.591 249.782,-107.825 249.782,-107.825 249.782,-107.825 251.292,-112.591 245.492,-109.184 252.803,-117.358 252.803,-117.358"/>
</g>
<!-- Shop&#45;&gt;Reward -->
<g id="edge14" class="edge"><title>Shop&#45;&gt;Reward</title>
<path fill="none" stroke="#588d97" d="M290.725,-205.712C292.644,-164.65 296.253,-87.4166 298.173,-46.3297"/>
<polygon fill="#588d97" stroke="#588d97" points="290.718,-205.86 285.756,-215.639 290.485,-210.855 290.251,-215.849 290.251,-215.849 290.251,-215.849 290.485,-210.855 294.746,-216.059 290.718,-205.86 290.718,-205.86"/>
<polygon fill="#588d97" stroke="#588d97" points="298.178,-46.2216 303.14,-36.4425 298.411,-41.227 298.644,-36.2325 298.644,-36.2325 298.644,-36.2325 298.411,-41.227 294.149,-36.0224 298.178,-46.2216 298.178,-46.2216"/>
</g>
<!-- Shopper&#45;&gt;FollowedBy -->
<g id="edge15" class="edge"><title>Shopper&#45;&gt;FollowedBy</title>
<path fill="none" stroke="#3600ca" d="M134.351,-139.281C126.831,-131.539 118.322,-122.78 110.635,-114.868"/>
<ellipse fill="none" stroke="#3600ca" cx="137.232" cy="-142.247" rx="4.00002" ry="4.00002"/>
<polygon fill="#3600ca" stroke="#3600ca" points="110.259,-114.48 106.519,-104.171 106.775,-110.893 103.291,-107.307 103.291,-107.307 103.291,-107.307 106.775,-110.893 100.063,-110.443 110.259,-114.48 110.259,-114.48"/>
</g>
<!-- Shopper&#45;&gt;Post -->
<g id="edge16" class="edge"><title>Shopper&#45;&gt;Post</title>
<path fill="none" stroke="#b9d7b3" d="M180.941,-140.95C193.142,-131.354 207.691,-119.912 219.783,-110.401"/>
<ellipse fill="none" stroke="#b9d7b3" cx="177.468" cy="-143.682" rx="4.00002" ry="4.00002"/>
<polygon fill="#b9d7b3" stroke="#b9d7b3" points="219.843,-110.354 230.485,-107.709 223.773,-107.263 227.703,-104.172 227.703,-104.172 227.703,-104.172 223.773,-107.263 224.921,-100.635 219.843,-110.354 219.843,-110.354"/>
</g>
<!-- Shopper&#45;&gt;Reward -->
<g id="edge17" class="edge"><title>Shopper&#45;&gt;Reward</title>
<path fill="none" stroke="#8b23f0" d="M166.62,-134.889C175.768,-115.768 190.169,-90.1037 208.45,-72 224.048,-56.553 245.032,-43.9369 262.92,-34.8943"/>
<polygon fill="#8b23f0" stroke="#8b23f0" points="166.507,-135.134 158.235,-142.333 164.415,-139.676 162.322,-144.217 162.322,-144.217 162.322,-144.217 164.415,-139.676 166.409,-146.1 166.507,-135.134 166.507,-135.134"/>
<polygon fill="#8b23f0" stroke="#8b23f0" points="262.957,-34.8761 273.918,-34.5404 267.452,-32.6857 271.946,-30.4952 271.946,-30.4952 271.946,-30.4952 267.452,-32.6857 269.975,-26.45 262.957,-34.8761 262.957,-34.8761"/>
</g>
</g>
</svg>
