<?xml version="1.0" encoding="UTF-8" standalone="no"?>
<!DOCTYPE svg PUBLIC "-//W3C//DTD SVG 1.1//EN"
 "http://www.w3.org/Graphics/SVG/1.1/DTD/svg11.dtd">
<!-- Generated by graphviz version 2.38.0 (20140413.2041)
 -->
<!-- Title: models_diagram Pages: 1 -->
<svg width="543pt" height="926pt"
 viewBox="0.00 0.00 542.86 926.00" xmlns="http://www.w3.org/2000/svg" xmlns:xlink="http://www.w3.org/1999/xlink">
<g id="graph0" class="graph" transform="scale(1 1) rotate(0) translate(4 922)">
<title>models_diagram</title>
<polygon fill="none" stroke="none" points="-4,4 -4,-922 538.856,-922 538.856,4 -4,4"/>
<!-- _diagram_info -->
<g id="node1" class="node"><title>_diagram_info</title>
<text text-anchor="start" x="68.6763" y="-840.6" font-family="Times,serif" font-size="13.00">Models diagram</text>
<text text-anchor="start" x="68.6763" y="-827.6" font-family="Times,serif" font-size="13.00">Date: Aug 15 2015 &#45; 15:00</text>
<text text-anchor="start" x="68.6763" y="-814.6" font-family="Times,serif" font-size="13.00">Migration version: 20150814011331</text>
<text text-anchor="start" x="68.6763" y="-801.6" font-family="Times,serif" font-size="13.00">Generated by RailRoady 1.3.1</text>
<text text-anchor="start" x="68.6763" y="-788.6" font-family="Times,serif" font-size="13.00">http://railroady.prestonlee.com</text>
</g>
<!-- Brand -->
<g id="node2" class="node"><title>Brand</title>
<path fill="none" stroke="black" d="M297.621,-719.5C297.621,-719.5 406.631,-719.5 406.631,-719.5 412.631,-719.5 418.631,-725.5 418.631,-731.5 418.631,-731.5 418.631,-905.5 418.631,-905.5 418.631,-911.5 412.631,-917.5 406.631,-917.5 406.631,-917.5 297.621,-917.5 297.621,-917.5 291.621,-917.5 285.621,-911.5 285.621,-905.5 285.621,-905.5 285.621,-731.5 285.621,-731.5 285.621,-725.5 291.621,-719.5 297.621,-719.5"/>
<text text-anchor="middle" x="352.126" y="-902.3" font-family="Times,serif" font-size="14.00">Brand</text>
<polyline fill="none" stroke="black" points="285.621,-895.5 418.631,-895.5 "/>
<text text-anchor="start" x="293.621" y="-880.3" font-family="Times,serif" font-size="14.00">id :integer</text>
<text text-anchor="start" x="293.621" y="-866.3" font-family="Times,serif" font-size="14.00">email :string</text>
<text text-anchor="start" x="293.621" y="-852.3" font-family="Times,serif" font-size="14.00">provider :string</text>
<text text-anchor="start" x="293.621" y="-838.3" font-family="Times,serif" font-size="14.00">uid :string</text>
<text text-anchor="start" x="293.621" y="-824.3" font-family="Times,serif" font-size="14.00">nickname :string</text>
<text text-anchor="start" x="293.621" y="-810.3" font-family="Times,serif" font-size="14.00">name :string</text>
<text text-anchor="start" x="293.621" y="-796.3" font-family="Times,serif" font-size="14.00">image :string</text>
<text text-anchor="start" x="293.621" y="-782.3" font-family="Times,serif" font-size="14.00">bio :string</text>
<text text-anchor="start" x="293.621" y="-768.3" font-family="Times,serif" font-size="14.00">website :string</text>
<text text-anchor="start" x="293.621" y="-754.3" font-family="Times,serif" font-size="14.00">token :string</text>
<text text-anchor="start" x="293.621" y="-740.3" font-family="Times,serif" font-size="14.00">created_at :datetime</text>
<text text-anchor="start" x="293.621" y="-726.3" font-family="Times,serif" font-size="14.00">updated_at :datetime</text>
</g>
<!-- FollowedBy -->
<g id="node3" class="node"><title>FollowedBy</title>
<path fill="none" stroke="black" d="M12,-0.5C12,-0.5 134.252,-0.5 134.252,-0.5 140.252,-0.5 146.252,-6.5 146.252,-12.5 146.252,-12.5 146.252,-102.5 146.252,-102.5 146.252,-108.5 140.252,-114.5 134.252,-114.5 134.252,-114.5 12,-114.5 12,-114.5 6,-114.5 0,-108.5 0,-102.5 0,-102.5 0,-12.5 0,-12.5 0,-6.5 6,-0.5 12,-0.5"/>
<text text-anchor="middle" x="73.126" y="-99.3" font-family="Times,serif" font-size="14.00">FollowedBy</text>
<polyline fill="none" stroke="black" points="0,-92.5 146.252,-92.5 "/>
<text text-anchor="start" x="8" y="-77.3" font-family="Times,serif" font-size="14.00">id :integer</text>
<text text-anchor="start" x="8" y="-63.3" font-family="Times,serif" font-size="14.00">followable_id :integer</text>
<text text-anchor="start" x="8" y="-49.3" font-family="Times,serif" font-size="14.00">followable_type :string</text>
<text text-anchor="start" x="8" y="-35.3" font-family="Times,serif" font-size="14.00">follower_id :integer</text>
<text text-anchor="start" x="8" y="-21.3" font-family="Times,serif" font-size="14.00">created_at :datetime</text>
<text text-anchor="start" x="8" y="-7.3" font-family="Times,serif" font-size="14.00">updated_at :datetime</text>
</g>
<!-- Brand&#45;&gt;FollowedBy -->
<g id="edge1" class="edge"><title>Brand&#45;&gt;FollowedBy</title>
<path fill="none" stroke="#0f31e0" d="M278.786,-720.773C277.905,-720.168 277.019,-719.577 276.126,-719 218.185,-681.547 176.871,-728.632 125.126,-683 66.3696,-631.185 77.1293,-595.078 63.126,-518 38.0274,-379.851 52.158,-214.515 63.4461,-124.641"/>
<ellipse fill="none" stroke="#0f31e0" cx="282.19" cy="-723.286" rx="4.00002" ry="4.00002"/>
<polygon fill="#0f31e0" stroke="#0f31e0" points="63.4627,-124.511 69.1995,-115.165 64.0994,-119.552 64.7361,-114.592 64.7361,-114.592 64.7361,-114.592 64.0994,-119.552 60.2728,-114.019 63.4627,-124.511 63.4627,-124.511"/>
</g>
<!-- Follower -->
<g id="node4" class="node"><title>Follower</title>
<path fill="none" stroke="black" d="M146.276,-554.5C146.276,-554.5 259.976,-554.5 259.976,-554.5 265.976,-554.5 271.976,-560.5 271.976,-566.5 271.976,-566.5 271.976,-670.5 271.976,-670.5 271.976,-676.5 265.976,-682.5 259.976,-682.5 259.976,-682.5 146.276,-682.5 146.276,-682.5 140.276,-682.5 134.276,-676.5 134.276,-670.5 134.276,-670.5 134.276,-566.5 134.276,-566.5 134.276,-560.5 140.276,-554.5 146.276,-554.5"/>
<text text-anchor="middle" x="203.126" y="-667.3" font-family="Times,serif" font-size="14.00">Follower</text>
<polyline fill="none" stroke="black" points="134.276,-660.5 271.976,-660.5 "/>
<text text-anchor="start" x="142.276" y="-645.3" font-family="Times,serif" font-size="14.00">id :integer</text>
<text text-anchor="start" x="142.276" y="-631.3" font-family="Times,serif" font-size="14.00">username :string</text>
<text text-anchor="start" x="142.276" y="-617.3" font-family="Times,serif" font-size="14.00">profile_picture :string</text>
<text text-anchor="start" x="142.276" y="-603.3" font-family="Times,serif" font-size="14.00">uid :string</text>
<text text-anchor="start" x="142.276" y="-589.3" font-family="Times,serif" font-size="14.00">name :string</text>
<text text-anchor="start" x="142.276" y="-575.3" font-family="Times,serif" font-size="14.00">created_at :datetime</text>
<text text-anchor="start" x="142.276" y="-561.3" font-family="Times,serif" font-size="14.00">updated_at :datetime</text>
</g>
<!-- Brand&#45;&gt;Follower -->
<g id="edge2" class="edge"><title>Brand&#45;&gt;Follower</title>
<path fill="none" stroke="#a06634" d="M279.38,-720.831C271.724,-710.658 264.044,-700.451 256.662,-690.642"/>
<polygon fill="#a06634" stroke="#a06634" points="279.458,-720.934 281.875,-731.63 282.464,-724.929 285.47,-728.924 285.47,-728.924 285.47,-728.924 282.464,-724.929 289.066,-726.218 279.458,-720.934 279.458,-720.934"/>
<polygon fill="#a06634" stroke="#a06634" points="256.552,-690.496 254.135,-679.8 253.546,-686.501 250.539,-682.506 250.539,-682.506 250.539,-682.506 253.546,-686.501 246.944,-685.211 256.552,-690.496 256.552,-690.496"/>
</g>
<!-- Shop -->
<g id="node6" class="node"><title>Shop</title>
<ellipse fill="none" stroke="black" cx="427.126" cy="-618.5" rx="28.0822" ry="18"/>
<text text-anchor="middle" x="427.126" y="-614.3" font-family="Times,serif" font-size="14.00">Shop</text>
</g>
<!-- Brand&#45;&gt;Shop -->
<g id="edge3" class="edge"><title>Brand&#45;&gt;Shop</title>
<path fill="none" stroke="#db1c69" d="M392.144,-711.853C401.842,-686.25 411.315,-661.242 417.951,-643.721"/>
<ellipse fill="none" stroke="#db1c69" cx="390.713" cy="-715.629" rx="4.00001" ry="4.00001"/>
<ellipse fill="#db1c69" stroke="#db1c69" cx="419.375" cy="-639.963" rx="4.00001" ry="4.00001"/>
</g>
<!-- Order -->
<g id="node7" class="node"><title>Order</title>
<ellipse fill="none" stroke="black" cx="504.126" cy="-618.5" rx="30.9619" ry="18"/>
<text text-anchor="middle" x="504.126" y="-614.3" font-family="Times,serif" font-size="14.00">Order</text>
</g>
<!-- Brand&#45;&gt;Order -->
<g id="edge4" class="edge"><title>Brand&#45;&gt;Order</title>
<path fill="none" stroke="#b6a820" d="M425.288,-733.085C438.602,-716.769 452.078,-699.585 464.126,-683 473.096,-670.652 482.232,-656.309 489.505,-644.382"/>
<polygon fill="#b6a820" stroke="#b6a820" points="425.119,-733.29 415.294,-738.162 421.945,-737.154 418.772,-741.018 418.772,-741.018 418.772,-741.018 421.945,-737.154 422.249,-743.874 425.119,-733.29 425.119,-733.29"/>
<polygon fill="#b6a820" stroke="#b6a820" points="489.51,-644.372 498.524,-638.126 492.089,-640.088 494.669,-635.805 494.669,-635.805 494.669,-635.805 492.089,-640.088 490.813,-633.484 489.51,-644.372 489.51,-644.372"/>
</g>
<!-- Post -->
<g id="node8" class="node"><title>Post</title>
<ellipse fill="none" stroke="black" cx="224.126" cy="-57.5" rx="27" ry="18"/>
<text text-anchor="middle" x="224.126" y="-53.3" font-family="Times,serif" font-size="14.00">Post</text>
</g>
<!-- Brand&#45;&gt;Post -->
<g id="edge5" class="edge"><title>Brand&#45;&gt;Post</title>
<path fill="none" stroke="#210e1f" d="M347.922,-709.025C340.576,-526.679 325.138,-176.039 314.126,-151 300.589,-120.219 271.993,-93.7375 250.646,-77.0936"/>
<polygon fill="#210e1f" stroke="#210e1f" points="347.929,-709.191 343.834,-719.364 348.129,-714.187 348.33,-719.183 348.33,-719.183 348.33,-719.183 348.129,-714.187 352.826,-719.003 347.929,-709.191 347.929,-709.191"/>
<polygon fill="#210e1f" stroke="#210e1f" points="250.559,-77.0277 245.294,-67.4084 246.57,-74.0131 242.581,-70.9985 242.581,-70.9985 242.581,-70.9985 246.57,-74.0131 239.868,-74.5886 250.559,-77.0277 250.559,-77.0277"/>
</g>
<!-- Reward -->
<g id="node9" class="node"><title>Reward</title>
<ellipse fill="none" stroke="black" cx="349.126" cy="-57.5" rx="37.7179" ry="18"/>
<text text-anchor="middle" x="349.126" y="-53.3" font-family="Times,serif" font-size="14.00">Reward</text>
</g>
<!-- Brand&#45;&gt;Reward -->
<g id="edge6" class="edge"><title>Brand&#45;&gt;Reward</title>
<path fill="none" stroke="#2e7d5b" d="M351.699,-709.412C350.994,-531.039 349.625,-184.871 349.233,-85.6687"/>
<polygon fill="#2e7d5b" stroke="#2e7d5b" points="351.699,-709.44 347.238,-719.458 351.719,-714.44 351.738,-719.44 351.738,-719.44 351.738,-719.44 351.719,-714.44 356.238,-719.422 351.699,-709.44 351.699,-709.44"/>
<polygon fill="#2e7d5b" stroke="#2e7d5b" points="349.233,-85.5751 353.693,-75.5574 349.213,-80.5752 349.193,-75.5752 349.193,-75.5752 349.193,-75.5752 349.213,-80.5752 344.694,-75.593 349.233,-85.5751 349.233,-85.5751"/>
</g>
<!-- Follower&#45;&gt;FollowedBy -->
<g id="edge7" class="edge"><title>Follower&#45;&gt;FollowedBy</title>
<path fill="none" stroke="#bd1207" d="M127.931,-565.317C113.598,-551.655 100.481,-535.717 92.126,-518 60.1752,-450.247 64.8549,-234.948 69.6323,-124.799"/>
<ellipse fill="none" stroke="#bd1207" cx="131.195" cy="-568.323" rx="4.00002" ry="4.00002"/>
<polygon fill="#bd1207" stroke="#bd1207" points="69.6326,-124.788 74.5744,-114.999 69.8558,-119.793 70.0789,-114.798 70.0789,-114.798 70.0789,-114.798 69.8558,-119.793 65.5833,-114.598 69.6326,-124.788 69.6326,-124.788"/>
</g>
<!-- Shopper -->
<g id="node5" class="node"><title>Shopper</title>
<path fill="none" stroke="black" d="M112.848,-151.5C112.848,-151.5 293.404,-151.5 293.404,-151.5 299.404,-151.5 305.404,-157.5 305.404,-163.5 305.404,-163.5 305.404,-505.5 305.404,-505.5 305.404,-511.5 299.404,-517.5 293.404,-517.5 293.404,-517.5 112.848,-517.5 112.848,-517.5 106.848,-517.5 100.848,-511.5 100.848,-505.5 100.848,-505.5 100.848,-163.5 100.848,-163.5 100.848,-157.5 106.848,-151.5 112.848,-151.5"/>
<text text-anchor="middle" x="203.126" y="-502.3" font-family="Times,serif" font-size="14.00">Shopper</text>
<polyline fill="none" stroke="black" points="100.848,-495.5 305.404,-495.5 "/>
<text text-anchor="start" x="108.848" y="-480.3" font-family="Times,serif" font-size="14.00">id :integer</text>
<text text-anchor="start" x="108.848" y="-466.3" font-family="Times,serif" font-size="14.00">email :string</text>
<text text-anchor="start" x="108.848" y="-452.3" font-family="Times,serif" font-size="14.00">encrypted_password :string</text>
<text text-anchor="start" x="108.848" y="-438.3" font-family="Times,serif" font-size="14.00">reset_password_token :string</text>
<text text-anchor="start" x="108.848" y="-424.3" font-family="Times,serif" font-size="14.00">reset_password_sent_at :datetime</text>
<text text-anchor="start" x="108.848" y="-410.3" font-family="Times,serif" font-size="14.00">remember_created_at :datetime</text>
<text text-anchor="start" x="108.848" y="-396.3" font-family="Times,serif" font-size="14.00">sign_in_count :integer</text>
<text text-anchor="start" x="108.848" y="-382.3" font-family="Times,serif" font-size="14.00">current_sign_in_at :datetime</text>
<text text-anchor="start" x="108.848" y="-368.3" font-family="Times,serif" font-size="14.00">last_sign_in_at :datetime</text>
<text text-anchor="start" x="108.848" y="-354.3" font-family="Times,serif" font-size="14.00">current_sign_in_ip :inet</text>
<text text-anchor="start" x="108.848" y="-340.3" font-family="Times,serif" font-size="14.00">last_sign_in_ip :inet</text>
<text text-anchor="start" x="108.848" y="-326.3" font-family="Times,serif" font-size="14.00">created_at :datetime</text>
<text text-anchor="start" x="108.848" y="-312.3" font-family="Times,serif" font-size="14.00">updated_at :datetime</text>
<text text-anchor="start" x="108.848" y="-298.3" font-family="Times,serif" font-size="14.00">provider :string</text>
<text text-anchor="start" x="108.848" y="-284.3" font-family="Times,serif" font-size="14.00">uid :string</text>
<text text-anchor="start" x="108.848" y="-270.3" font-family="Times,serif" font-size="14.00">nickname :string</text>
<text text-anchor="start" x="108.848" y="-256.3" font-family="Times,serif" font-size="14.00">name :string</text>
<text text-anchor="start" x="108.848" y="-242.3" font-family="Times,serif" font-size="14.00">image :string</text>
<text text-anchor="start" x="108.848" y="-228.3" font-family="Times,serif" font-size="14.00">bio :string</text>
<text text-anchor="start" x="108.848" y="-214.3" font-family="Times,serif" font-size="14.00">website :string</text>
<text text-anchor="start" x="108.848" y="-200.3" font-family="Times,serif" font-size="14.00">token :string</text>
<text text-anchor="start" x="108.848" y="-186.3" font-family="Times,serif" font-size="14.00">follower_count :string</text>
<text text-anchor="start" x="108.848" y="-172.3" font-family="Times,serif" font-size="14.00">following_count :string</text>
<text text-anchor="start" x="108.848" y="-158.3" font-family="Times,serif" font-size="14.00">media_count :string</text>
</g>
<!-- Follower&#45;&gt;Shopper -->
<g id="edge8" class="edge"><title>Follower&#45;&gt;Shopper</title>
<path fill="none" stroke="#419088" d="M203.126,-544.122C203.126,-538.837 203.126,-533.387 203.126,-527.812"/>
<polygon fill="#419088" stroke="#419088" points="203.126,-544.214 198.626,-554.214 203.126,-549.214 203.126,-554.214 203.126,-554.214 203.126,-554.214 203.126,-549.214 207.626,-554.214 203.126,-544.214 203.126,-544.214"/>
<polygon fill="#419088" stroke="#419088" points="203.126,-527.653 207.626,-517.653 203.126,-522.653 203.126,-517.653 203.126,-517.653 203.126,-517.653 203.126,-522.653 198.626,-517.653 203.126,-527.653 203.126,-527.653"/>
</g>
<!-- Shopper&#45;&gt;FollowedBy -->
<g id="edge9" class="edge"><title>Shopper&#45;&gt;FollowedBy</title>
<path fill="none" stroke="#681d52" d="M113.406,-143.709C110.163,-136.849 107.017,-130.193 104.007,-123.825"/>
<ellipse fill="none" stroke="#681d52" cx="115.247" cy="-147.603" rx="4.00002" ry="4.00002"/>
<polygon fill="#681d52" stroke="#681d52" points="103.972,-123.752 103.767,-112.788 101.836,-119.232 99.6986,-114.711 99.6986,-114.711 99.6986,-114.711 101.836,-119.232 95.6303,-116.635 103.972,-123.752 103.972,-123.752"/>
</g>
<!-- Shopper&#45;&gt;Post -->
<g id="edge10" class="edge"><title>Shopper&#45;&gt;Post</title>
<path fill="none" stroke="#fefec6" d="M217.678,-142.936C219.361,-120.899 220.88,-101.011 222.02,-86.0789"/>
<ellipse fill="none" stroke="#fefec6" cx="217.35" cy="-147.231" rx="4" ry="4"/>
<polygon fill="#fefec6" stroke="#fefec6" points="222.053,-85.6442 227.302,-76.0159 222.434,-80.6587 222.815,-75.6732 222.815,-75.6732 222.815,-75.6732 222.434,-80.6587 218.328,-75.3306 222.053,-85.6442 222.053,-85.6442"/>
</g>
<!-- Shopper&#45;&gt;Reward -->
<g id="edge11" class="edge"><title>Shopper&#45;&gt;Reward</title>
<path fill="none" stroke="#c49022" d="M304.736,-142.111C316.8,-119.388 327.625,-98.9984 335.565,-84.0432"/>
<polygon fill="#c49022" stroke="#c49022" points="304.59,-142.387 295.926,-149.109 302.245,-146.803 299.901,-151.219 299.901,-151.219 299.901,-151.219 302.245,-146.803 303.875,-153.329 304.59,-142.387 304.59,-142.387"/>
<polygon fill="#c49022" stroke="#c49022" points="335.661,-83.8628 344.324,-77.1406 338.005,-79.4466 340.35,-75.0304 340.35,-75.0304 340.35,-75.0304 338.005,-79.4466 336.375,-72.9203 335.661,-83.8628 335.661,-83.8628"/>
</g>
</g>
</svg>
